<mxfile host="app.diagrams.net" modified="2024-02-05T11:43:15.689Z" agent="Mozilla/5.0 (Windows NT 10.0; Win64; x64) AppleWebKit/537.36 (KHTML, like Gecko) Chrome/121.0.0.0 Safari/537.36" etag="PYK3fnaNQer1PrOdIPNJ" version="23.1.1" type="device">
  <diagram name="Sivu-1" id="_VnKAhv6Thy113v5TyBc">
    <mxGraphModel dx="1802" dy="765" grid="0" gridSize="10" guides="1" tooltips="1" connect="1" arrows="1" fold="1" page="1" pageScale="1" pageWidth="827" pageHeight="1169" math="0" shadow="0">
      <root>
        <mxCell id="0" />
        <mxCell id="1" parent="0" />
        <mxCell id="xJm8C8_TEKa0GVovGYLA-1" value="" style="rounded=0;whiteSpace=wrap;html=1;" vertex="1" parent="1">
          <mxGeometry x="226" y="73" width="376" height="1009" as="geometry" />
        </mxCell>
        <mxCell id="xJm8C8_TEKa0GVovGYLA-2" value="Lipunmyyj채&lt;br&gt;" style="shape=umlActor;verticalLabelPosition=bottom;verticalAlign=top;html=1;outlineConnect=0;" vertex="1" parent="1">
          <mxGeometry x="94" y="243" width="30" height="60" as="geometry" />
        </mxCell>
        <mxCell id="xJm8C8_TEKa0GVovGYLA-3" value="Palveluntarjoaja" style="shape=umlActor;verticalLabelPosition=bottom;verticalAlign=top;html=1;outlineConnect=0;" vertex="1" parent="1">
          <mxGeometry x="730" y="612" width="30" height="60" as="geometry" />
        </mxCell>
        <mxCell id="xJm8C8_TEKa0GVovGYLA-4" value="Lipuntarkastaja" style="shape=umlActor;verticalLabelPosition=bottom;verticalAlign=top;html=1;outlineConnect=0;" vertex="1" parent="1">
          <mxGeometry x="89" y="855" width="30" height="60" as="geometry" />
        </mxCell>
        <mxCell id="xJm8C8_TEKa0GVovGYLA-5" value="Myy lippu" style="ellipse;whiteSpace=wrap;html=1;" vertex="1" parent="1">
          <mxGeometry x="354" y="168" width="120" height="80" as="geometry" />
        </mxCell>
        <mxCell id="xJm8C8_TEKa0GVovGYLA-6" value="Tarkasta lippu" style="ellipse;whiteSpace=wrap;html=1;" vertex="1" parent="1">
          <mxGeometry x="354" y="988" width="120" height="80" as="geometry" />
        </mxCell>
        <mxCell id="xJm8C8_TEKa0GVovGYLA-7" value="M채채rittele tapahtuma" style="ellipse;whiteSpace=wrap;html=1;" vertex="1" parent="1">
          <mxGeometry x="354" y="517" width="120" height="80" as="geometry" />
        </mxCell>
        <mxCell id="xJm8C8_TEKa0GVovGYLA-8" value="Muokkaa tapahtuman tietoja" style="ellipse;whiteSpace=wrap;html=1;" vertex="1" parent="1">
          <mxGeometry x="354" y="775" width="120" height="80" as="geometry" />
        </mxCell>
        <mxCell id="xJm8C8_TEKa0GVovGYLA-9" value="Luo lipputyypit tapahtumaan" style="ellipse;whiteSpace=wrap;html=1;" vertex="1" parent="1">
          <mxGeometry x="354" y="602" width="120" height="80" as="geometry" />
        </mxCell>
        <mxCell id="xJm8C8_TEKa0GVovGYLA-10" value="Luo myyntitapahtuma" style="ellipse;whiteSpace=wrap;html=1;" vertex="1" parent="1">
          <mxGeometry x="354" y="81" width="120" height="80" as="geometry" />
        </mxCell>
        <mxCell id="xJm8C8_TEKa0GVovGYLA-11" value="Tulosta lippu" style="ellipse;whiteSpace=wrap;html=1;" vertex="1" parent="1">
          <mxGeometry x="354" y="254" width="120" height="80" as="geometry" />
        </mxCell>
        <mxCell id="xJm8C8_TEKa0GVovGYLA-12" value="Tulosta myyntiraportti" style="ellipse;whiteSpace=wrap;html=1;" vertex="1" parent="1">
          <mxGeometry x="354" y="431" width="120" height="80" as="geometry" />
        </mxCell>
        <mxCell id="xJm8C8_TEKa0GVovGYLA-17" value="Selaa kaikkia tapahtumia" style="ellipse;whiteSpace=wrap;html=1;" vertex="1" parent="1">
          <mxGeometry x="354" y="863" width="120" height="80" as="geometry" />
        </mxCell>
        <mxCell id="xJm8C8_TEKa0GVovGYLA-19" value="Tarkastele yht채 tapahtumaa" style="ellipse;whiteSpace=wrap;html=1;" vertex="1" parent="1">
          <mxGeometry x="354" y="689" width="120" height="80" as="geometry" />
        </mxCell>
        <mxCell id="xJm8C8_TEKa0GVovGYLA-20" value="" style="endArrow=none;html=1;rounded=0;entryX=0;entryY=0.5;entryDx=0;entryDy=0;" edge="1" parent="1" source="xJm8C8_TEKa0GVovGYLA-4" target="xJm8C8_TEKa0GVovGYLA-6">
          <mxGeometry width="50" height="50" relative="1" as="geometry">
            <mxPoint x="552" y="840" as="sourcePoint" />
            <mxPoint x="602" y="790" as="targetPoint" />
          </mxGeometry>
        </mxCell>
        <mxCell id="xJm8C8_TEKa0GVovGYLA-22" value="" style="endArrow=none;html=1;rounded=0;entryX=0;entryY=0.5;entryDx=0;entryDy=0;" edge="1" parent="1" target="xJm8C8_TEKa0GVovGYLA-10">
          <mxGeometry width="50" height="50" relative="1" as="geometry">
            <mxPoint x="131" y="269" as="sourcePoint" />
            <mxPoint x="602" y="405" as="targetPoint" />
          </mxGeometry>
        </mxCell>
        <mxCell id="xJm8C8_TEKa0GVovGYLA-23" value="" style="endArrow=none;html=1;rounded=0;entryX=0;entryY=0.5;entryDx=0;entryDy=0;" edge="1" parent="1" target="xJm8C8_TEKa0GVovGYLA-5">
          <mxGeometry width="50" height="50" relative="1" as="geometry">
            <mxPoint x="129" y="270" as="sourcePoint" />
            <mxPoint x="364" y="131" as="targetPoint" />
          </mxGeometry>
        </mxCell>
        <mxCell id="xJm8C8_TEKa0GVovGYLA-24" value="" style="endArrow=none;html=1;rounded=0;entryX=0;entryY=0.5;entryDx=0;entryDy=0;" edge="1" parent="1" target="xJm8C8_TEKa0GVovGYLA-11">
          <mxGeometry width="50" height="50" relative="1" as="geometry">
            <mxPoint x="129" y="269" as="sourcePoint" />
            <mxPoint x="602" y="405" as="targetPoint" />
          </mxGeometry>
        </mxCell>
        <mxCell id="xJm8C8_TEKa0GVovGYLA-25" value="" style="endArrow=none;html=1;rounded=0;entryX=0;entryY=0.5;entryDx=0;entryDy=0;" edge="1" parent="1" target="xJm8C8_TEKa0GVovGYLA-12">
          <mxGeometry width="50" height="50" relative="1" as="geometry">
            <mxPoint x="129" y="267" as="sourcePoint" />
            <mxPoint x="364" y="304" as="targetPoint" />
          </mxGeometry>
        </mxCell>
        <mxCell id="xJm8C8_TEKa0GVovGYLA-26" value="" style="endArrow=none;html=1;rounded=0;exitX=1;exitY=0.5;exitDx=0;exitDy=0;" edge="1" parent="1" source="xJm8C8_TEKa0GVovGYLA-12">
          <mxGeometry width="50" height="50" relative="1" as="geometry">
            <mxPoint x="552" y="604" as="sourcePoint" />
            <mxPoint x="728" y="647" as="targetPoint" />
          </mxGeometry>
        </mxCell>
        <mxCell id="xJm8C8_TEKa0GVovGYLA-27" value="" style="endArrow=none;html=1;rounded=0;exitX=1;exitY=0.5;exitDx=0;exitDy=0;" edge="1" parent="1" source="xJm8C8_TEKa0GVovGYLA-7">
          <mxGeometry width="50" height="50" relative="1" as="geometry">
            <mxPoint x="552" y="604" as="sourcePoint" />
            <mxPoint x="727" y="647" as="targetPoint" />
          </mxGeometry>
        </mxCell>
        <mxCell id="xJm8C8_TEKa0GVovGYLA-28" value="" style="endArrow=none;html=1;rounded=0;exitX=1;exitY=0.5;exitDx=0;exitDy=0;" edge="1" parent="1" source="xJm8C8_TEKa0GVovGYLA-9">
          <mxGeometry width="50" height="50" relative="1" as="geometry">
            <mxPoint x="552" y="604" as="sourcePoint" />
            <mxPoint x="727" y="647" as="targetPoint" />
          </mxGeometry>
        </mxCell>
        <mxCell id="xJm8C8_TEKa0GVovGYLA-29" value="" style="endArrow=none;html=1;rounded=0;exitX=1;exitY=0.5;exitDx=0;exitDy=0;" edge="1" parent="1" source="xJm8C8_TEKa0GVovGYLA-19">
          <mxGeometry width="50" height="50" relative="1" as="geometry">
            <mxPoint x="552" y="604" as="sourcePoint" />
            <mxPoint x="726" y="647" as="targetPoint" />
          </mxGeometry>
        </mxCell>
        <mxCell id="xJm8C8_TEKa0GVovGYLA-30" value="" style="endArrow=none;html=1;rounded=0;exitX=1;exitY=0.5;exitDx=0;exitDy=0;" edge="1" parent="1" source="xJm8C8_TEKa0GVovGYLA-8">
          <mxGeometry width="50" height="50" relative="1" as="geometry">
            <mxPoint x="552" y="826" as="sourcePoint" />
            <mxPoint x="725" y="647" as="targetPoint" />
          </mxGeometry>
        </mxCell>
        <mxCell id="xJm8C8_TEKa0GVovGYLA-31" value="" style="endArrow=none;html=1;rounded=0;exitX=1;exitY=0.5;exitDx=0;exitDy=0;" edge="1" parent="1" source="xJm8C8_TEKa0GVovGYLA-17">
          <mxGeometry width="50" height="50" relative="1" as="geometry">
            <mxPoint x="552" y="826" as="sourcePoint" />
            <mxPoint x="725" y="647" as="targetPoint" />
          </mxGeometry>
        </mxCell>
        <mxCell id="xJm8C8_TEKa0GVovGYLA-32" value="Tarkastele myyntitapahtumia" style="ellipse;whiteSpace=wrap;html=1;" vertex="1" parent="1">
          <mxGeometry x="354" y="344" width="120" height="80" as="geometry" />
        </mxCell>
        <mxCell id="xJm8C8_TEKa0GVovGYLA-33" value="" style="endArrow=none;html=1;rounded=0;exitX=1;exitY=0.5;exitDx=0;exitDy=0;" edge="1" parent="1" source="xJm8C8_TEKa0GVovGYLA-32">
          <mxGeometry width="50" height="50" relative="1" as="geometry">
            <mxPoint x="549" y="423" as="sourcePoint" />
            <mxPoint x="723" y="646" as="targetPoint" />
          </mxGeometry>
        </mxCell>
        <mxCell id="xJm8C8_TEKa0GVovGYLA-34" value="" style="endArrow=none;html=1;rounded=0;entryX=0;entryY=0.5;entryDx=0;entryDy=0;" edge="1" parent="1" target="xJm8C8_TEKa0GVovGYLA-32">
          <mxGeometry width="50" height="50" relative="1" as="geometry">
            <mxPoint x="132" y="271" as="sourcePoint" />
            <mxPoint x="599" y="373" as="targetPoint" />
          </mxGeometry>
        </mxCell>
      </root>
    </mxGraphModel>
  </diagram>
</mxfile>
